<svg width="26" height="25" viewBox="0 0 26 25" fill="none" xmlns="http://www.w3.org/2000/svg">
<g id="Iconly/Light/Home">
<g id="Home">
<path id="Home_2" d="M10.212 22.3357V19.0134C10.212 18.1684 10.9009 17.4817 11.7544 17.4761H14.881C15.7386 17.4761 16.4339 18.1643 16.4339 19.0134V19.0134V22.346C16.4337 23.0635 17.0121 23.6499 17.7366 23.6667H19.821C21.8989 23.6667 23.5833 21.9991 23.5833 19.942V19.942V10.491C23.5722 9.68173 23.1884 8.9218 22.5411 8.42745L15.4125 2.74241C14.1637 1.75253 12.3884 1.75253 11.1395 2.74241L4.04219 8.43777C3.39245 8.93011 3.008 9.69131 3 10.5013V19.942C3 21.9991 4.68445 23.6667 6.76232 23.6667H8.84671C9.58922 23.6667 10.1911 23.0708 10.1911 22.3357V22.3357" stroke="#179C8C" stroke-width="1.5" stroke-linecap="round" stroke-linejoin="round"/>
</g>
</g>
</svg>
